<svg id="svg" xmlns="http://www.w3.org/2000/svg" xmlns:xlink="http://www.w3.org/1999/xlink" width="400" height="400"
     viewBox="0, 0, 400,400">
    <g id="svgg">
        <path id="path0"
              d="M174.609 1.194 C 11.016 22.509,-58.409 221.685,56.608 339.734 C 162.584 448.504,347.795 403.651,391.657 258.594 C 433.672 119.641,318.036 -17.494,174.609 1.194 M270.661 121.780 C 309.884 132.342,321.571 173.265,291.245 193.859 L 286.599 197.014 292.323 200.374 C 324.446 219.226,319.537 260.226,283.437 274.590 C 260.186 283.842,227.944 282.247,207.909 270.855 C 178.481 254.122,177.536 215.534,206.185 200.479 C 212.700 197.055,212.686 197.097,208.329 194.345 C 178.713 175.635,187.638 134.890,223.932 123.112 C 236.369 119.075,258.296 118.451,270.661 121.780 M163.281 199.609 L 163.281 278.125 142.188 278.125 L 121.094 278.125 121.094 219.531 C 121.094 169.094,120.937 160.938,119.970 160.938 C 119.353 160.938,113.500 162.175,106.965 163.687 C 100.430 165.200,94.918 166.273,94.718 166.072 C 94.141 165.496,86.669 134.165,87.023 133.810 C 87.198 133.636,96.956 130.740,108.709 127.377 L 130.078 121.260 146.680 121.177 L 163.281 121.094 163.281 199.609 M242.224 151.696 C 235.190 153.715,229.680 160.853,229.695 167.927 C 229.744 190.701,267.476 191.886,268.624 169.150 C 269.300 155.768,256.810 147.510,242.224 151.696 M240.234 214.374 C 215.515 222.192,226.067 251.863,252.503 248.872 C 281.382 245.605,278.441 213.077,249.290 213.334 C 246.028 213.362,241.953 213.831,240.234 214.374 "
              stroke="none" fill="#000000" fill-rule="evenodd"></path>
    </g>
</svg>