<svg id="svg" xmlns="http://www.w3.org/2000/svg" xmlns:xlink="http://www.w3.org/1999/xlink" width="400" height="400"
     viewBox="0, 0, 400,400">
    <g id="svgg">
        <path id="path0"
              d="M32.874 24.721 C 15.680 30.740,11.766 40.377,11.738 76.758 L 11.719 101.563 200.040 101.563 L 388.360 101.563 388.126 75.977 L 387.891 50.391 385.610 45.740 C 377.327 28.844,364.728 23.461,333.436 23.447 L 312.575 23.438 312.342 43.164 C 312.079 65.446,312.025 65.658,305.808 68.739 C 300.831 71.205,295.228 69.721,291.797 65.028 C 290.348 63.047,290.217 61.450,290.001 43.164 L 289.769 23.438 195.275 23.438 L 100.781 23.438 100.781 42.276 C 100.781 60.197,100.698 61.263,99.075 64.151 C 95.765 70.040,89.125 71.629,83.181 67.955 C 78.479 65.049,78.125 63.249,78.125 42.265 L 78.125 23.438 57.227 23.475 C 40.446 23.505,35.648 23.750,32.874 24.721 M11.728 237.305 C 11.736 327.929,11.933 349.560,12.782 352.734 C 15.405 362.539,21.153 369.723,29.564 373.707 L 34.766 376.172 195.282 376.375 C 340.449 376.558,356.213 376.458,360.126 375.328 C 373.496 371.468,384.314 361.778,388.229 350.155 C 389.831 345.400,389.844 344.480,389.844 235.572 L 389.844 125.781 200.781 125.781 L 11.719 125.781 11.728 237.305 M120.597 170.608 C 126.288 172.986,126.563 174.004,126.563 192.722 C 126.563 217.661,127.025 217.186,102.734 217.173 C 78.465 217.160,79.297 218.006,79.297 193.359 C 79.297 168.998,78.652 169.646,102.955 169.575 C 114.074 169.543,118.694 169.813,120.597 170.608 M213.502 170.595 C 219.122 172.974,219.141 173.051,219.141 193.814 L 219.141 212.464 216.974 214.631 L 214.808 216.797 196.139 216.797 L 177.470 216.797 175.440 214.891 C 172.181 211.829,171.727 208.757,172.007 191.657 C 172.374 169.248,171.944 169.646,195.924 169.575 C 206.968 169.543,211.658 169.815,213.502 170.595 M308.339 170.820 C 313.456 173.248,313.672 174.143,313.672 192.933 C 313.672 218.496,314.935 217.180,290.391 217.185 C 265.427 217.189,266.406 218.172,266.406 193.113 C 266.406 169.099,265.893 169.610,290.116 169.562 C 302.951 169.537,306.091 169.753,308.339 170.820 M121.901 276.966 C 126.309 279.246,126.672 281.086,126.409 299.847 C 126.074 323.806,126.874 323.047,101.953 323.047 C 78.274 323.047,78.622 323.434,79.044 297.610 C 79.410 275.233,78.778 275.810,102.968 275.793 C 116.331 275.784,120.060 276.015,121.901 276.966 M214.869 276.966 C 219.160 279.185,219.532 281.004,219.528 299.766 C 219.524 324.412,220.279 323.714,194.098 323.299 C 171.577 322.941,171.989 323.386,171.919 299.389 C 171.849 275.396,171.465 275.781,195.457 275.781 C 209.232 275.781,213.025 276.013,214.869 276.966 M308.518 276.769 C 313.394 279.275,313.672 280.507,313.672 299.609 C 313.672 323.971,314.317 323.322,290.014 323.393 C 266.021 323.464,266.406 323.848,266.406 299.856 C 266.406 274.844,265.423 275.853,289.844 275.824 C 301.675 275.810,307.196 276.090,308.518 276.769 "
              stroke="none" fill="#000000" fill-rule="evenodd"></path>
    </g>
</svg>