<svg id="svg" xmlns="http://www.w3.org/2000/svg" xmlns:xlink="http://www.w3.org/1999/xlink" width="400" height="400"
     viewBox="0, 0, 400,400">
    <g id="svgg">
        <path id="path0"
              d="M180.059 1.091 C 175.977 2.869,175.536 4.915,175.051 24.295 C 174.501 46.285,175.400 44.663,160.547 50.468 C 117.210 67.404,96.541 96.739,98.670 138.291 C 100.613 176.220,122.550 198.568,181.743 222.921 C 221.611 239.323,231.638 247.830,231.640 265.251 C 231.643 298.294,180.559 306.081,127.291 281.157 C 110.098 273.112,109.644 273.433,102.348 298.828 C 93.746 328.769,93.844 330.120,105.078 336.314 C 116.030 342.352,132.428 347.461,152.734 351.163 C 171.943 354.664,170.535 352.840,171.137 375.000 C 171.832 400.593,171.205 399.993,197.266 399.996 C 224.002 399.998,223.390 400.556,223.478 376.115 C 223.566 351.891,224.171 350.640,238.012 346.084 C 305.622 323.823,326.125 246.449,277.344 197.654 C 264.881 185.188,254.347 179.187,217.088 163.327 C 180.182 147.617,170.342 139.544,170.320 124.958 C 170.280 98.025,216.203 91.174,261.668 111.329 C 276.649 117.970,276.984 117.636,285.975 87.047 C 290.973 70.042,291.491 65.883,289.101 61.963 C 286.150 57.123,267.379 49.918,248.438 46.355 C 225.621 42.063,226.604 43.125,225.841 21.954 C 225.026 -0.616,225.879 0.095,199.609 0.075 C 187.079 0.065,181.782 0.340,180.059 1.091 "
              stroke="none" fill="#000000" fill-rule="evenodd"></path>
    </g>
</svg>