<svg id="svg" xmlns="http://www.w3.org/2000/svg" xmlns:xlink="http://www.w3.org/1999/xlink" width="400" height="400" viewBox="0, 0, 400,400"><g id="svgg"><path id="path0" d="M202.692 1.155 C 170.173 11.430,171.061 58.286,203.936 66.805 C 232.442 74.191,256.099 44.913,243.048 18.401 C 236.029 4.145,217.836 -3.630,202.692 1.155 M118.343 27.259 C 114.542 28.218,111.907 30.367,110.195 33.905 C 108.367 37.681,107.630 182.205,109.391 191.492 C 111.957 205.020,123.472 216.906,136.133 219.095 C 139.419 219.664,139.544 219.984,137.895 223.606 C 137.252 225.017,132.178 243.451,126.618 264.569 L 116.510 302.967 93.284 334.100 C 67.390 368.810,66.270 370.606,66.302 377.355 C 66.389 395.520,85.541 405.608,100.168 395.193 C 103.018 393.164,152.604 326.982,155.101 321.875 C 156.047 319.941,159.941 306.504,163.755 292.014 L 170.689 265.669 173.821 268.672 C 175.544 270.323,183.984 278.117,192.578 285.991 L 208.203 300.307 208.050 303.864 C 207.965 305.821,206.785 323.770,205.426 343.750 C 202.727 383.443,202.723 383.315,206.973 390.017 C 216.698 405.351,241.752 400.499,245.216 382.610 C 246.412 376.435,251.796 294.839,251.365 289.430 C 250.734 281.526,249.312 279.732,228.724 260.871 C 218.297 251.318,208.787 242.572,207.591 241.436 L 205.416 239.371 210.900 203.474 C 213.916 183.731,216.653 166.569,216.981 165.336 C 217.554 163.184,217.899 163.549,225.610 174.481 C 239.624 194.344,235.803 192.969,276.966 192.969 L 308.341 192.969 308.857 220.508 C 309.140 235.654,309.373 270.226,309.374 297.334 C 309.376 374.745,309.971 395.980,312.203 398.212 C 314.802 400.811,320.151 400.713,322.681 398.020 L 324.541 396.041 324.377 339.231 C 324.286 307.986,323.986 261.970,323.710 236.972 L 323.208 191.523 325.636 190.046 C 335.305 184.166,336.617 170.131,328.256 162.011 C 323.398 157.293,321.256 157.031,287.467 157.031 L 257.249 157.031 240.734 133.565 L 224.219 110.099 224.219 104.741 C 224.219 77.343,192.293 60.470,170.508 76.353 L 167.969 78.205 167.956 57.266 C 167.937 26.246,168.657 27.026,139.844 26.808 C 129.316 26.728,119.641 26.931,118.343 27.259 " stroke="none" fill="#000000" fill-rule="evenodd"></path></g></svg>