<svg id="svg" version="1.1" xmlns="http://www.w3.org/2000/svg" xmlns:xlink="http://www.w3.org/1999/xlink" width="400" height="400" viewBox="0, 0, 400,400"><g id="svgg"><path id="path0" d="M227.762 25.853 C 196.312 30.124,171.407 42.454,150.361 64.173 C 135.071 79.950,126.227 93.352,105.063 132.813 C 78.082 183.120,61.649 197.314,27.779 199.567 C 16.855 200.294,12.497 203.961,12.503 212.420 C 12.511 224.030,21.948 227.503,43.452 223.808 C 78.768 217.741,99.182 198.518,128.891 143.359 C 153.659 97.372,165.126 81.964,184.375 68.805 C 212.902 49.302,257.694 44.477,281.148 58.378 C 296.586 67.529,303.695 86.472,296.682 99.774 L 294.536 103.845 290.941 100.001 C 270.853 78.525,231.648 84.228,213.723 111.232 C 181.469 159.825,207.231 229.993,263.281 246.216 C 289.424 253.783,307.817 251.440,338.337 236.659 C 355.393 228.398,362.086 226.247,373.518 225.353 C 383.263 224.591,387.494 220.700,387.494 212.500 C 387.494 194.656,363.880 195.136,326.172 213.745 C 297.058 228.114,274.861 227.890,253.125 213.008 C 223.688 192.853,216.404 144.277,239.302 120.824 C 251.594 108.233,272.950 110.706,274.599 124.910 C 277.503 149.930,311.829 135.677,322.361 105.078 C 333.673 72.211,312.626 38.363,274.219 27.654 C 265.928 25.343,239.163 24.305,227.762 25.853 M18.157 264.058 C 10.361 268.812,10.479 281.473,18.362 286.037 C 19.852 286.899,23.826 287.682,29.297 288.189 C 40.511 289.228,45.995 290.990,62.500 298.852 C 87.732 310.871,92.482 312.118,112.891 312.085 C 133.046 312.052,138.273 310.633,164.063 298.188 C 192.820 284.311,207.945 284.375,236.719 298.493 C 261.270 310.540,267.005 312.074,287.500 312.074 C 308.127 312.074,311.770 311.110,337.500 298.852 C 354.004 290.990,359.488 289.229,370.703 288.189 C 383.416 287.010,387.503 283.820,387.497 275.080 C 387.490 265.133,383.204 262.256,369.141 262.759 C 353.983 263.302,347.672 265.253,322.252 277.255 C 293.277 290.937,280.299 290.609,248.451 275.388 C 210.928 257.456,189.079 257.454,151.563 275.380 C 118.435 291.210,106.916 291.176,73.047 275.151 C 48.068 263.332,26.498 258.973,18.157 264.058 M18.157 326.558 C 10.361 331.312,10.479 343.973,18.362 348.537 C 19.852 349.399,23.826 350.182,29.297 350.689 C 40.511 351.728,45.995 353.490,62.500 361.352 C 87.732 373.371,92.482 374.618,112.891 374.585 C 133.046 374.552,138.273 373.133,164.063 360.688 C 192.820 346.811,207.945 346.875,236.719 360.993 C 261.270 373.040,267.005 374.574,287.500 374.574 C 308.127 374.574,311.770 373.610,337.500 361.352 C 354.004 353.490,359.488 351.729,370.703 350.689 C 383.416 349.510,387.503 346.320,387.497 337.580 C 387.490 327.633,383.204 324.756,369.141 325.259 C 353.983 325.802,347.672 327.753,322.252 339.755 C 293.277 353.437,280.299 353.109,248.451 337.888 C 210.928 319.956,189.079 319.954,151.563 337.880 C 118.435 353.710,106.916 353.676,73.047 337.651 C 48.068 325.832,26.498 321.473,18.157 326.558 " stroke="none" fill="#000000" fill-rule="evenodd"></path></g></svg>