<svg id="svg" xmlns="http://www.w3.org/2000/svg" xmlns:xlink="http://www.w3.org/1999/xlink" width="400" height="400" viewBox="0, 0, 400,400"><g id="svgg"><path id="path0" d="M306.250 1.482 C 283.442 6.530,261.818 23.861,253.177 44.018 C 248.164 55.715,259.198 60.450,264.910 49.053 C 285.602 7.766,338.541 -0.281,370.041 33.073 C 403.112 68.089,388.128 122.637,330.818 175.859 L 323.314 182.828 321.227 181.226 C 290.224 157.422,261.030 111.194,258.938 82.595 C 258.355 74.619,257.490 72.255,254.741 71.116 C 249.479 68.936,246.094 72.153,246.094 79.333 C 246.094 103.652,260.814 134.952,285.795 163.749 L 291.283 170.076 286.853 171.862 C 268.125 179.409,262.566 193.205,273.840 204.155 C 294.540 224.258,362.183 221.760,375.386 200.405 C 381.856 189.941,375.497 178.260,360.010 172.161 L 354.785 170.104 360.025 164.154 C 386.143 134.492,400.013 104.090,399.987 76.563 C 399.941 27.632,354.077 -9.104,306.250 1.482 M314.973 43.386 C 293.221 48.107,281.869 74.605,293.267 94.054 C 309.513 121.775,351.903 113.840,356.962 82.131 C 360.851 57.756,339.506 38.061,314.973 43.386 M329.470 55.867 C 338.190 58.457,344.814 67.596,344.754 76.953 C 344.616 98.366,316.294 106.465,304.771 88.387 C 293.957 71.421,310.132 50.124,329.470 55.867 M90.033 120.356 C 52.778 123.364,19.869 147.864,6.663 182.422 C -10.630 227.675,6.106 280.437,54.928 334.580 C 57.936 337.916,60.255 340.755,60.081 340.890 C 59.908 341.024,57.480 341.944,54.688 342.934 C 20.884 354.911,19.864 380.986,52.732 392.879 C 88.692 405.891,142.992 400.670,161.386 382.433 C 175.387 368.550,165.646 350.114,140.139 342.222 L 135.982 340.936 141.148 335.116 C 153.005 321.759,161.719 310.165,161.719 307.744 C 161.719 303.477,156.977 300.433,152.816 302.030 C 152.146 302.287,148.395 306.519,144.479 311.435 C 132.611 326.337,117.292 342.207,100.224 357.284 C 97.883 359.353,97.412 359.009,81.947 343.939 C 13.247 276.996,-5.368 213.146,30.170 166.344 C 65.763 119.471,136.991 121.959,169.769 171.221 C 190.043 201.690,188.551 239.435,165.444 280.640 C 160.941 288.670,162.056 294.063,168.220 294.063 C 175.666 294.062,189.456 265.290,194.633 238.954 C 207.492 173.538,155.896 115.037,90.033 120.356 M94.922 175.489 C 81.466 177.126,70.312 183.070,70.313 188.605 C 70.313 195.264,74.662 196.536,82.838 192.269 C 102.560 181.977,124.231 192.171,128.180 213.598 C 133.068 240.122,100.216 258.980,79.167 241.733 C 70.723 234.813,67.630 226.894,68.335 213.996 C 68.875 204.107,68.728 203.682,64.326 202.419 C 58.665 200.796,56.142 204.748,55.646 216.016 C 53.597 262.566,116.513 278.946,136.753 237.131 C 151.146 207.395,126.858 171.605,94.922 175.489 M308.203 186.715 C 322.828 200.287,323.030 200.296,336.581 187.956 L 344.646 180.612 349.642 182.041 C 360.390 185.114,366.800 190.029,364.699 193.584 C 358.791 203.577,322.713 208.749,299.931 202.869 C 276.818 196.903,275.351 188.077,296.465 182.022 C 301.809 180.489,301.256 180.268,308.203 186.715 M235.005 188.313 C 229.967 193.351,233.638 198.438,242.313 198.438 C 250.304 198.438,253.125 196.622,253.125 191.479 C 253.125 185.550,240.052 183.266,235.005 188.313 M211.880 199.805 C 205.206 206.955,206.000 214.063,213.473 214.063 C 217.948 214.063,225.773 204.539,224.563 200.566 C 222.761 194.648,217.015 194.303,211.880 199.805 M202.235 224.933 C 198.375 228.062,200.195 241.108,204.755 242.997 C 210.452 245.357,213.719 241.120,212.856 232.490 C 212.037 224.297,207.234 220.880,202.235 224.933 M215.904 251.556 C 209.491 254.144,211.147 261.466,219.281 266.493 C 224.496 269.716,230.469 267.278,230.469 261.925 C 230.469 258.920,220.529 250.217,217.799 250.831 C 217.677 250.858,216.825 251.184,215.904 251.556 M242.876 262.505 C 240.606 263.832,239.518 267.640,240.637 270.342 C 243.554 277.383,260.156 275.364,260.156 267.969 C 260.156 262.719,248.706 259.099,242.876 262.505 M273.011 263.636 C 268.011 268.637,271.906 274.219,280.396 274.219 C 289.077 274.219,292.882 271.073,290.667 265.726 C 288.806 261.234,276.831 259.817,273.011 263.636 M304.402 263.338 C 298.528 267.958,302.963 274.219,312.109 274.219 C 319.305 274.219,321.875 272.574,321.875 267.969 C 321.875 263.363,319.305 261.719,312.109 261.719 C 307.578 261.719,306.054 262.039,304.402 263.338 M335.845 262.464 C 333.562 263.872,332.490 267.647,333.606 270.342 C 336.487 277.297,353.125 275.377,353.125 268.091 C 353.125 262.944,341.307 259.096,335.845 262.464 M365.240 269.727 C 361.306 273.125,362.495 277.455,368.500 281.602 C 375.097 286.157,380.414 285.450,381.480 279.876 C 382.755 273.205,370.256 265.393,365.240 269.727 M385.213 292.683 C 381.354 297.590,386.538 310.156,392.421 310.156 C 397.971 310.156,399.758 305.039,396.842 297.490 C 394.134 290.477,388.712 288.236,385.213 292.683 M389.217 322.502 C 382.609 329.110,385.656 342.238,393.349 340.307 C 397.636 339.231,401.465 327.341,398.715 323.644 C 396.628 320.838,391.498 320.221,389.217 322.502 M374.979 348.945 C 367.189 354.141,364.911 359.815,369.246 363.225 C 372.788 366.011,375.958 365.019,382.227 359.166 C 388.785 353.041,382.379 344.008,374.979 348.945 M75.033 355.148 C 78.805 359.031,91.380 369.989,94.510 372.122 C 98.941 375.140,101.434 373.692,118.203 358.354 L 125.859 351.352 131.094 352.734 C 148.484 357.328,158.000 365.272,153.742 371.644 C 140.210 391.896,61.208 392.811,43.743 372.919 C 37.789 366.138,46.686 357.709,64.998 352.780 C 70.999 351.165,71.213 351.216,75.033 355.148 M311.996 361.497 C 305.023 362.373,304.997 372.498,311.965 373.719 C 319.903 375.110,326.563 372.395,326.563 367.768 C 326.563 362.022,322.326 360.198,311.996 361.497 M341.324 361.808 C 337.568 363.186,336.460 367.998,339.119 371.379 C 342.267 375.381,356.111 373.850,357.312 369.367 C 359.181 362.391,350.683 358.373,341.324 361.808 M186.184 362.505 C 184.064 363.359,182.813 365.608,182.813 368.562 C 182.813 375.553,199.868 377.078,202.231 370.300 C 204.520 363.734,194.823 359.025,186.184 362.505 M216.531 362.969 C 209.871 367.634,213.935 374.154,223.527 374.194 C 231.046 374.225,233.594 372.650,233.594 367.969 C 233.594 362.289,222.248 358.965,216.531 362.969 M246.449 363.636 C 239.845 370.241,252.255 377.941,261.663 373.076 C 269.259 369.148,264.696 361.719,254.688 361.719 C 249.018 361.719,248.169 361.916,246.449 363.636 M277.480 363.527 C 272.058 369.298,278.010 375.029,288.390 374.032 C 295.152 373.382,298.400 366.890,293.820 363.181 C 290.916 360.830,279.792 361.065,277.480 363.527 " stroke="none" fill="#000000" fill-rule="evenodd"></path></g></svg>